<svg viewBox="0 0 99 45" xmlns="http://www.w3.org/2000/svg"><g fill="#939598"><path d="m54 15h3v3h-3z"/><path d="m54 3h3v3h-3z"/><path d="m60 9v3h-6v3h-3v6h-3v-6h-3v-3h-6v-3h6v-3h3v-6h3v6h3v3z"/><path d="m42 3h3v3h-3z"/><path d="m42 15h3v3h-3z"/><path d="m21 30v12h-3v-9h-3v-3z"/><path d="m18 42v3h-6v-12h3v9z"/><path d="m84 33h3v12h-3z"/><path d="m48 33h3v3h6v6h-3v-3h-6z"/><path d="m99 42v3h-9v-15h3v12z"/><path d="m27 42h6v3h-6z"/><path d="m36 30h3v12h-3z"/><path d="m48 42h6v3h-6z"/><path d="m81 30h3v3h-3z"/><path d="m24 33h3v9h-3z"/><path d="m51 30h6v3h-6z"/><path d="m39 42h3v3h-3z"/><path d="m0 33h3v3h6v3h-6v6h-3z"/><path d="m3 30h6v3h-6z"/><path d="m72 30h3v15h-3z"/><path d="m42 30h3v12h-3z"/><path d="m66 33h3v9h-3z"/><path d="m78 33h3v12h-3z"/><path d="m63 42h3v3h-6v-15h6v3h-3z"/><path d="m27 30h6v3h-6z"/></g></svg>